HIERARCHY
ROOT root     
{
	OFFSET 0.0000 0.0000 0.0000
	CHANNELS 6 Xposition Yposition Zposition Zrotation Yrotation Xrotation
	JOINT pelvis   
	{
		OFFSET 0.0000 0.0000 0.0000
		CHANNELS 3 Zrotation Yrotation Xrotation
		JOINT thorax   
		{
			OFFSET 0.0000 23.0750 -5.0000
			CHANNELS 3 Zrotation Yrotation Xrotation
			JOINT rclavicle
			{
				OFFSET 0.0000 28.0009 0.0000
				CHANNELS 3 Zrotation Yrotation Xrotation
				JOINT rhumerus 
				{
					OFFSET -18.5725 5.5939 0.0000
					CHANNELS 3 Zrotation Yrotation Xrotation
					JOINT rradius  
					{
						OFFSET -24.8459 0.0000 0.0000
						CHANNELS 3 Zrotation Yrotation Xrotation
						JOINT rhand    
						{
							OFFSET -24.5477 0.0000 0.0000
							CHANNELS 3 Zrotation Yrotation Xrotation
							End Site
							{
								OFFSET -8.1826 0.0000 0.0000
							}
						}
					}
				}
			}
			JOINT lclavicle
			{
				OFFSET 0.0000 28.0009 0.0000
				CHANNELS 3 Zrotation Yrotation Xrotation
				JOINT lhumerus 
				{
					OFFSET 18.5725 5.5939 0.0000
					CHANNELS 3 Zrotation Yrotation Xrotation
					JOINT lradius  
					{
						OFFSET 24.8459 0.0000 0.0000
						CHANNELS 3 Zrotation Yrotation Xrotation
						JOINT lhand    
						{
							OFFSET 24.5477 0.0000 0.0000
							CHANNELS 3 Zrotation Yrotation Xrotation
							End Site
							{
								OFFSET 8.1826 0.0000 0.0000
							}
						}
					}
				}
			}
			JOINT head     
			{
				OFFSET 0.0000 35.2030 0.0000
				CHANNELS 3 Zrotation Yrotation Xrotation
				End Site
				{
					OFFSET 0.0000 11.7343 0.0000
				}
			}
		}
		JOINT rfemur   
		{
			OFFSET -8.2817 0.0000 0.0000
			CHANNELS 3 Zrotation Yrotation Xrotation
			JOINT rtibia   
			{
				OFFSET 0.0000 -43.3627 0.0000
				CHANNELS 3 Zrotation Yrotation Xrotation
				JOINT rfoot    
				{
					OFFSET 0.0000 -38.2947 0.0000
					CHANNELS 3 Zrotation Yrotation Xrotation
					JOINT rtoes    
					{
						OFFSET 0.0000 0.0000 16.6054
						CHANNELS 3 Zrotation Yrotation Xrotation
						End Site
						{
							OFFSET 0.0000 0.0000 5.5351
						}
					}
				}
			}
		}
		JOINT lfemur   
		{
			OFFSET 8.2817 0.0000 0.0000
			CHANNELS 3 Zrotation Yrotation Xrotation
			JOINT ltibia   
			{
				OFFSET 0.0000 -43.3627 0.0000
				CHANNELS 3 Zrotation Yrotation Xrotation
				JOINT lfoot    
				{
					OFFSET 0.0000 -38.2947 0.0000
					CHANNELS 3 Zrotation Yrotation Xrotation
					JOINT ltoes    
					{
						OFFSET 0.0000 0.0000 16.6054
						CHANNELS 3 Zrotation Yrotation Xrotation
						End Site
						{
							OFFSET 0.0000 0.0000 5.5351
						}
					}
				}
			}
		}
	}
}
MOTION
Frames: 23
Frame Time: .0333333
-80.518 76.661 -9.026 138.249 87.5359 161.51 0 -0 0 -1.42265 -9.41184 22.4554 24.08 -12.6141 7.63372e-05 56.2122 -24.3821 4.63946 -0 75.3779 -0 -7.92902 -0.712001 0.0492993 -16.8368 12.9378 -0.000137211 -38.8625 8.7873 -7.59683 -180 -75.7205 180 -5.3415 0.280696 -0.0130998 4.97679 -3.45274 -10.2975 12.8278 -11.696 -64.8408 -0 -0 49.6972 -6.67482e-08 -2.86878 -0.448102 0.0225003 7.87794e-08 -14.47 -0.110665 13.89 -19.6321 -0 -0 50.3559 -3.71122e-06 7.63364 -16.1443 -2.13425 2.33661e-05 -60.2895 
-79.278 76.571 -8.8998 137.635 87.3683 160.643 0 -0 0 -0.911673 -9.44033 22.4955 24.2468 -12.3599 2.34828e-05 56.2823 -23.6784 4.26735 9.95789e-07 74.8917 1.30029e-06 -8.11198 -0.720503 0.0510991 -16.9476 12.8475 7.45048e-05 -39.8662 9.47244 -7.27494 -180 -76.5065 180 -5.42563 0.255896 -0.0120996 4.68518 -3.67044 -9.93864 12.2861 -11.5318 -64.4053 -0 -0 51.2642 -5.38376e-07 -3.11751 -1.74837 0.095201 2.11421e-08 -8.54026 0.294715 13.6532 -18.8057 -0 -0 50.8335 5.12987e-06 7.19787 -14.7164 -1.8376 1.05848e-05 -62.9077 
-78.059 76.504 -8.7582 138.094 87.2131 160.881 0 -0 0 -0.370485 -9.48713 22.5238 24.4408 -12.0778 -0.000104931 56.3245 -22.8492 3.89633 0 74.357 0 -8.35868 -0.772905 0.0565 -17.0318 12.7382 0.000182162 -40.942 10.1564 -6.90713 -180 -77.4184 180 -5.47496 0.281699 -0.0134997 4.41923 -3.87896 -9.53764 11.8083 -11.3558 -63.9339 -0 -0 52.6875 1.79664e-06 -3.44625 -3.06101 0.184205 1.94065e-07 -4.03159 0.72763 13.3754 -18.1665 -0 -0 51.513 -3.20539e-05 6.76954 -13.0917 -1.54016 -2.48347e-05 -65.1137 
-76.866 76.462 -8.6037 139.288 87.0458 161.895 0 -0 0 0.189555 -9.54834 22.534 24.6595 -11.7738 -6.18312e-05 56.3433 -21.9055 3.52652 -1.22242e-06 73.7807 -9.17509e-07 -8.66772 -0.874095 0.0662 -17.0892 12.6062 -0.000142021 -42.07 10.8384 -6.49503 180 -78.4448 180 -5.48822 0.356498 -0.0170996 4.19415 -4.08907 -9.10328 11.3974 -11.1806 -63.4317 -0 -0 53.9435 -5.08963e-06 -3.84231 -4.36422 0.292801 -3.11013e-08 -0.828096 1.16706 13.0497 -17.739 -0 -0 52.3994 -3.11954e-06 6.3829 -11.3058 -1.25629 4.04187e-06 -66.66 
-75.704 76.443 -8.4392 140.966 86.8502 163.437 0 -0 0 0.755779 -9.61934 22.5197 24.8988 -11.4561 -1.08035e-06 56.3431 -20.8632 3.15025 8.80215e-07 73.1934 1.18535e-06 -9.03279 -1.02541 0.080999 -17.1143 12.4505 -1.30493e-05 -43.2374 11.5106 -6.03697 -180 -79.5816 180 -5.46794 0.475999 -0.0227003 4.02299 -4.31273 -8.64744 11.0495 -11.0165 -62.9078 -0 -0 55.0198 -2.41424e-06 -4.29191 -5.63337 -179.578 -2.52051e-07 -1.23153 1.59034 12.6704 -17.5439 -0 -0 53.4929 -4.93423e-06 6.07642 -9.42051 -0.998199 -7.90865e-06 -67.3199 
-74.575 76.449 -8.2684 142.819 86.6311 165.204 0 -0 0 1.31471 -9.69237 22.482 25.151 -11.1299 1.5082e-05 56.3291 -19.7412 2.76572 8.46085e-07 72.6161 1.15145e-06 -9.4433 -1.22393 0.101103 -17.108 12.2768 0.000123095 -44.4215 12.1624 -5.52822 180 -80.8311 180 -5.41873 0.632807 -0.0298998 3.91655 -4.56176 -8.18634 10.7556 -10.8722 -62.3678 -0 -0 55.9115 -4.25283e-06 -4.77667 -6.84334 -179.429 4.17434e-07 -2.33625 1.97587 12.2399 -17.5872 -0 -0 54.7842 8.67229e-07 5.88828 -7.51686 -0.773 -4.27656e-07 -66.9036 
-73.482 76.476 -8.0957 144.521 86.369 166.869 0 -0 0 1.84994 -9.75828 22.422 25.4102 -10.7997 -3.21153e-06 56.3113 -18.5627 2.3666 0 72.077 0 -9.88494 -1.46135 0.126406 -17.0724 12.085 -0.000127814 -45.6012 12.7926 -4.96684 -180 -82.1691 180 -5.34912 0.818105 -0.0381993 3.88329 -4.84681 -7.73625 10.5013 -10.7562 -61.8174 -0 -0 56.633 -5.05536e-07 -5.27575 -7.9672 -179.267 3.05318e-07 -2.65699 2.29922 11.7646 -17.8702 -0 -0 56.2579 -5.99011e-09 5.85505 -5.68968 -0.582507 -2.46257e-06 -65.2937 
-72.424 76.522 -7.9259 145.809 86.0904 168.171 0 -0 0 2.34219 -9.80834 22.3438 25.6632 -10.4694 -1.61513e-05 56.303 -17.3479 1.95356 0 71.5982 0 -10.3406 -1.72451 0.156001 -17.0085 11.8755 9.93452e-05 -46.7573 13.4038 -4.35231 -180 -83.5908 180 -5.26597 1.018 -0.0468009 3.92849 -5.17293 -7.31544 10.2683 -10.6751 -61.2644 -0 -0 57.2009 2.98114e-06 -5.76565 -8.98314 -179.097 -4.0052e-07 -2.35943 2.5371 11.258 -18.3843 -0 -0 57.8868 -6.55503e-07 6.00765 -4.03561 -0.424311 8.01224e-07 -62.4966 
-71.399 76.586 -7.7603 146.692 85.7923 169.111 0 -0 0 2.79315 -9.82754 22.2545 25.8972 -10.1367 -0.00010237 56.3129 -16.13 1.51656 0 71.2118 0 -10.793 -2.00034 0.189 -16.92 11.6563 -3.19429e-05 -47.8708 13.9835 -3.67393 -180 -85.0941 180 -5.18688 1.22936 -0.0556979 4.04737 -5.54877 -6.93972 10.0533 -10.6295 -60.7139 -0 -0 57.6373 -7.31769e-06 -6.22547 -9.87757 -178.928 3.41506e-07 -1.63182 2.68713 10.7465 -19.1127 -0 -0 59.6472 -5.8203e-06 6.35286 -2.63874 -0.293694 8.52447e-07 -58.5901 
-70.406 76.664 -7.6009 147.137 85.4815 169.647 0 -0 0 3.19761 -9.80576 22.1598 26.0959 -9.79755 6.62918e-05 56.3483 -14.9354 1.05555 0 70.9374 0 -11.2229 -2.2713 0.223204 -16.812 11.4298 -9.55857e-06 -48.9259 14.5374 -2.9304 -180 -86.6346 180 -5.1237 1.44325 -0.0646023 4.23372 -5.97322 -6.62048 9.84545 -10.6156 -60.1683 -0 -0 57.967 -8.77273e-06 -6.63577 -10.6458 -178.769 5.66208e-08 -0.640498 2.74297 10.2542 -20.0362 -0 -0 61.5041 -3.52243e-06 6.89325 -1.56005 -0.188604 -1.84362e-06 -53.814 
-69.442 76.755 -7.4514 147.029 85.1631 169.653 0 -0 0 3.53274 -9.73711 22.0749 26.2459 -9.46158 -9.65958e-06 56.4173 -13.7596 0.600207 7.50896e-07 70.7769 1.05705e-06 -11.6158 -2.51888 0.256297 -16.6909 11.2025 4.93289e-05 -49.9021 15.0717 -2.12215 -180 -88.2465 180 -5.07797 1.64146 -0.0727973 4.48408 -6.43253 -6.3679 9.62734 -10.634 -59.6283 -0 -0 58.2236 -1.03179e-05 -6.97546 -11.3017 1.37366 2.22422e-07 -0.404105 2.68952 9.80237 -21.1227 -0 -0 63.409 -3.8065e-07 7.6243 -0.813705 -0.108901 5.51861e-07 -48.6417 
-68.503 76.857 -7.3086 146.591 84.8687 169.354 0 -0 0 3.82488 -9.60846 21.9994 26.3315 -9.11147 -4.94175e-05 56.5244 -12.6471 0.133845 1.06063e-06 70.7573 1.49361e-06 -11.9541 -2.72969 0.285812 -16.5647 10.9784 -8.316e-05 -50.7957 15.5833 -1.24299 180 -89.7923 -180 -5.07044 1.83197 -0.0811 4.77621 -6.926 -6.18027 9.41434 -10.6741 -59.1017 -0 -0 58.4214 3.11223e-05 -7.23718 -11.8546 1.49432 -4.05402e-07 -1.39875 2.54919 9.41736 -22.3538 -0 -0 65.3284 -7.85572e-08 8.50851 -0.403097 -0.0602993 1.49725e-07 -43.3086 
-67.586 76.969 -7.1741 145.763 84.6127 168.678 0 -0 0 4.05886 -9.4184 21.9437 26.3418 -8.75831 -3.1748e-05 56.6644 -11.5853 -0.305258 7.55077e-07 70.865 1.0612e-06 -12.2285 -2.89108 0.309793 -16.4363 10.7677 3.51926e-06 -51.5963 16.0789 -0.29642 2.31029e-05 -88.5275 -2.31407e-05 -5.09793 2.00199 -0.0890979 5.10065 -7.43235 -6.05603 9.19677 -10.7321 -58.5813 -0 -0 58.5836 -3.17975e-05 -7.41052 -12.3302 1.59099 -5.28725e-07 -2.20096 2.31762 9.11176 -23.6948 -0 -0 67.2125 1.51315e-07 9.51424 -0.281503 -0.0471998 2.45913e-08 -38.3181 
-66.687 77.09 -7.0458 144.652 84.3805 167.718 0 -0 0 4.24405 -9.16485 21.9129 26.2684 -8.40347 5.97023e-06 56.8309 -10.5766 -0.697277 0 71.0986 0 -12.4338 -2.99649 0.326509 -16.3126 10.5771 3.18313e-05 -52.2976 16.5611 0.716721 5.03497e-06 -86.8781 -5.31741e-06 -5.16349 2.15054 -0.0969973 5.43979 -7.93591 -5.98546 8.98412 -10.8023 -58.0714 -0 -0 58.7236 -1.02446e-05 -7.49483 -12.7503 1.66316 -2.05004e-06 -2.77987 2.00885 8.89489 -25.1243 -0 -0 69.0218 6.62663e-07 10.5921 -0.395293 -0.0739007 -2.43564e-07 -33.9893 
-65.804 77.22 -6.9215 143.345 84.2115 166.569 0 -0 0 4.39674 -8.84543 21.9007 26.104 -8.0365 -2.93568e-05 57.021 -9.64199 -1.043 -0 71.457 -0 -12.56 -3.04136 0.334809 -16.1978 10.4101 1.33219e-05 -52.9084 17.0326 1.79166 1.89534e-06 -85.2498 -1.7443e-06 -5.27375 2.28715 -0.105399 5.77338 -8.42603 -5.95146 8.78869 -10.8783 -57.5698 -0 -0 58.8448 -2.03986e-05 -7.49458 -13.1249 1.71113 5.82125e-08 -3.1862 1.64076 8.77166 -26.6258 -0 -0 70.7326 -3.15523e-06 11.6801 -0.731998 -0.151298 -4.08175e-07 -30.0773 
-64.932 77.358 -6.8001 141.823 84.0964 165.203 0 -0 0 4.51324 -8.46771 21.9118 25.8533 -7.67453 2.10409e-05 57.2123 -8.75419 -1.30135 -1.11316e-06 71.9159 -8.07504e-07 -12.6104 -3.0295 0.334789 -16.095 10.2756 4.13659e-05 -53.4247 17.5006 2.91943 3.63633e-06 -83.6373 -4.06393e-06 -5.41633 2.40574 -0.113798 6.09059 -8.88195 -5.94021 8.61365 -10.9585 -57.0741 -0 -0 58.9504 4.20587e-05 -7.41577 -13.4731 1.73693 7.91335e-07 -3.44065 1.22108 8.73526 -28.1784 -0 -0 72.3087 -1.35343e-06 12.7225 -1.20814 -0.272707 -2.34088e-06 -26.9489 
-64.07 77.504 -6.6799 140.135 84.0422 163.668 0 -0 0 4.60206 -8.0372 21.9392 25.5206 -7.3216 -6.8979e-05 57.3948 -7.90941 -1.46007 8.37401e-07 72.462 1.14283e-06 -12.5893 -2.96608 0.327296 -16.0063 10.1763 1.64109e-05 -53.8557 17.9725 4.08787 2.33489e-06 -82.0787 -2.03234e-06 -5.587 2.51238 -0.1226 6.37902 -9.29271 -5.93447 8.46817 -11.041 -56.5828 -0 -0 59.0387 -1.37895e-05 -7.268 -13.7984 1.74229 -5.65395e-07 -3.62971 0.764849 8.77522 -29.7741 -0 -0 73.7283 3.50297e-06 13.6612 -1.77557 -0.431506 3.77877e-07 -24.543 
-63.215 77.657 -6.5594 138.277 84.0506 161.962 0 -0 0 4.6659 -7.56324 21.9789 25.1158 -6.98692 3.14256e-05 57.5456 -7.09508 -1.50335 1.23557e-06 73.0872 1.66714e-06 -12.5006 -2.86185 0.313505 -15.9338 10.1131 -1.83333e-05 -54.2051 18.4564 5.28327 2.37849e-06 -80.5539 -2.80684e-06 -5.77517 2.60845 -0.131599 6.63119 -9.64803 -5.92001 8.3568 -11.1265 -56.0921 -0 -0 59.1036 1.62405e-06 -7.06171 -14.1055 1.72918 -4.98267e-07 -3.8254 0.283417 8.87466 -31.4018 -0 -0 74.9742 -3.3228e-06 14.4443 -2.37723 -0.612113 2.74516e-06 -22.8653 
-62.366 77.816 -6.4381 136.273 84.1045 160.102 0 -0 0 4.70941 -7.05371 22.0263 24.6473 -6.66923 2.54527e-05 57.6595 -6.31479 -1.43812 0 73.7742 0 -12.3485 -2.71889 0.294202 -15.8693 10.0924 -3.29259e-05 -54.4922 18.9503 6.49495 1.73912e-06 -79.0855 -1.43588e-06 -5.97694 2.70585 -0.141299 6.8421 -9.94696 -5.88486 8.28211 -11.2167 -55.6006 -0 -0 59.1431 8.44965e-06 -6.80597 -14.3881 1.69874 1.19689e-06 -4.11958 -0.212056 9.01317 -33.0571 -0 -0 76.041 6.28927e-06 15.0276 -2.98642 -0.801298 -3.8065e-06 -21.6575 
-61.519 77.979 -6.3157 134.076 84.2118 158.052 0 -0 0 4.72817 -6.52138 22.0748 24.1384 -6.38468 -2.21041e-06 57.7102 -5.54745 -1.25022 -1.27292e-06 74.5165 -9.68278e-07 -12.1417 -2.55713 0.271999 -15.8207 10.1052 -6.49578e-05 -54.7117 19.4784 7.69669 0 -77.704 0 -6.17586 2.7982 -0.151002 7.01348 -10.185 -5.82531 8.24205 -11.3131 -55.1058 -0 -0 59.1504 -4.18145e-06 -6.50989 -14.6416 1.65216 -2.18591e-06 -4.54636 -0.715771 9.16802 -34.7373 -0 -0 76.9187 1.76172e-06 15.387 -3.53576 -0.972299 -3.04435e-06 -21.063 
-60.675 78.147 -6.1924 131.678 84.3476 155.794 0 -0 0 4.72307 -5.97424 22.1236 23.5983 -6.13375 -1.29876e-05 57.6969 -4.79514 -0.955712 -0 75.315 -0 -11.887 -2.37576 0.247402 -15.7784 10.1566 3.77905e-05 -54.8816 20.036 8.87963 0 -76.4032 0 -6.36792 2.89535 -0.1611 7.14808 -10.3691 -5.74166 8.2318 -11.42 -54.6035 -0 -0 59.1295 2.26225e-05 -6.17928 -14.8545 1.58989 -8.44414e-07 -5.1721 -1.22087 9.31666 -36.4371 -0 -0 77.6087 1.5637e-05 15.514 -4.00259 -1.11011 -3.48817e-07 -20.9272 
-59.831 78.316 -6.0691 129.065 84.5089 153.319 0 -0 0 4.69028 -5.42145 22.1665 23.0443 -5.92175 3.39259e-05 57.612 -4.05302 -0.565922 0 76.1541 0 -11.5895 -2.18335 0.221596 -15.7437 10.2418 -6.05637e-05 -55.0076 20.6322 10.0238 1.02024e-06 -75.2086 -1.32462e-06 -6.54519 2.99603 -0.171401 7.25185 -10.5055 -5.64055 8.24224 -11.5359 -54.0939 -0 -0 59.0807 1.92255e-05 -5.8193 -15.0153 1.51243 -3.32332e-06 -6.01423 -1.72506 9.44015 -38.155 -0 -0 78.1139 -3.074e-06 15.421 -4.36635 -1.20306 1.60552e-05 -21.1647 
-58.986 78.484 -5.9466 126.193 84.6763 150.578 0 -0 0 4.62722 -4.87043 22.2062 22.491 -5.74977 -1.69971e-05 57.4493 -3.32283 -0.100804 1.1864e-06 77.0487 1.4902e-06 -11.2556 -1.98313 0.195406 -15.7136 10.357 -2.90082e-05 -55.0925 21.2733 11.1148 9.40798e-07 -74.1284 -1.24557e-06 -6.70256 3.10017 -0.181596 7.33199 -10.6051 -5.5328 8.26477 -11.6626 -53.5764 -0 -0 59.0129 1.20634e-05 -5.43364 -15.1146 1.42081 3.55348e-07 -7.07438 -2.22722 9.52373 -39.8855 -0 -0 78.439 -5.70807e-06 15.1342 -4.62651 -1.24965 1.50825e-05 -21.6479 
